<?xml version="1.0" encoding="UTF-8" standalone="no"?> <svg id="Capa_1" style="enable-background:new 0 0 25.994 25.994" xmlns="http://www.w3.org/2000/svg" xml:space="preserve" viewBox="0 0 25.994 25.994" version="1.1" y="0px" x="0px" xmlns:xlink="http://www.w3.org/1999/xlink"><g fill="#fff"><path d="m21.815 0h-17.635c-0.473 0-0.854 0.382-0.854 0.853v24.287c0 0.472 0.381 0.854 0.853 0.854h13.083c0.21 0 0.413-0.077 0.57-0.218l4.55-4.072c0.181-0.162 0.285-0.394 0.285-0.636v-20.215c0-0.471-0.382-0.853-0.852-0.853zm-0.853 20.59h-3.97v3.648l-0.053 0.047h-11.906v-22.578h15.928v18.883z"/><path d="m14.562 15.173h-4.337c-0.247 0-0.446 0.2-0.446 0.446v4.337c0 0.247 0.199 0.446 0.446 0.446h4.337c0.246 0 0.446-0.2 0.446-0.446v-4.336c0.001-0.246-0.199-0.447-0.446-0.447zm-0.444 4.338h-3.446v-3.446h3.446v3.446z"/><path d="m14.953 8.569v-0.032c0-0.218-0.177-0.394-0.394-0.394h-4.33c-0.217 0-0.394 0.176-0.394 0.394v4.329c0 0.219 0.177 0.395 0.394 0.395h4.331c0.217 0 0.394-0.176 0.394-0.395v-1.543l-0.696 0.696c-0.026 0.026-0.062 0.039-0.092 0.062v0.393h-3.543v-3.544h3.543v0.426l0.787-0.787z"/><path d="m15.764 8.313l-2.196 2.195-0.84-0.841c-0.227-0.227-0.593-0.227-0.82 0s-0.227 0.594 0 0.819l1.251 1.252c0.113 0.113 0.262 0.17 0.41 0.17 0.149 0 0.298-0.057 0.41-0.17l2.605-2.606c0.228-0.227 0.228-0.593 0-0.82-0.226-0.226-0.593-0.226-0.82 0.001z"/><rect height="1.189" width="11.385" y="4.159" x="7.305"/></g></svg>