<?xml version="1.0" encoding="UTF-8" standalone="no"?><!DOCTYPE html> <svg id="Capa_1" style="enable-background:new 0 0 112 112" xmlns="http://www.w3.org/2000/svg" xml:space="preserve" height="112px" viewBox="0 0 112 112" width="112px" version="1.1" y="0px" x="0px" xmlns:xlink="http://www.w3.org/1999/xlink"><path d="m112 24.411v35.177s-7.257 1.479-8.75 1.676c-1.493 0.195-6.17 1.758-9.57-1.619-5.23-5.208-23.834-24.393-23.834-24.393s-3.205-3.262-8.357-0.438c-4.703 2.577-11.681 6.346-14.63 7.835-1.045 0.76-2.313 1.209-3.686 1.209-3.557 0-6.439-2.992-6.439-6.684 0-2.893 1.774-5.35 4.254-6.279 6.709-4.21 20.685-12.35 26.519-15.565 3.562-1.96 6.127-2.128 11.014 2.133 6.021 5.259 11.373 10.042 11.373 10.042s2.506 1.199 4.53 0.905c4.234-0.625 17.576-3.999 17.576-3.999zm-74.014 59.602c0.9-2.398 0.598-5.088-1.129-6.926-1.553-1.656-3.812-2.092-5.974-1.578 0.603-2.217 0.271-4.578-1.292-6.248-1.559-1.652-3.812-2.086-5.973-1.572 0.597-2.217 0.266-4.578-1.293-6.25-2.445-2.604-6.674-2.49-9.45 0.26-2.763 2.753-4.536 7.73-2.067 10.652 2.465 2.92 5.287 1.146 7.448 0.635-0.597 2.218-2.397 4.283-0.187 7.188 2.207 2.912 5.287 1.148 7.447 0.632-0.602 2.216-2.324 4.487-0.19 7.187 2.146 2.697 5.665 1.26 7.983 0.514-0.896 2.395-2.813 4.965-0.35 7.868 2.459 2.901 8.148 1.55 10.93-1.199 2.776-2.749 3.039-7.103 0.603-9.707-1.68-1.792-4.191-2.208-6.506-1.456zm50.618-18.392c-19.979-20.725-10.57-10.967-21.36-22.18 0 0-3.253-3.36-7.532-1.41-3.005 1.367-6.874 3.229-9.791 4.648-3.206 1.735-6.001 2.268-6.585 2.268-6.183 0-11.2-5.199-11.2-11.61 0-4.158 2.129-7.779 5.301-9.833 4.461-3.201 14.737-8.876 14.737-8.876s-3.126-4.116-9.987-4.116c-6.854 0-21.172 9.739-21.172 9.739s-4.064 2.702-9.855 0.271l-11.16-4.032v40.244s3.184 0.963 6.048 2.17c0.653-1.908 1.685-3.683 3.142-5.137 4.75-4.696 12.619-4.747 16.944-0.132 1.298 1.396 2.208 3.084 2.675 4.925 1.746 0.56 3.312 1.543 4.586 2.9 1.303 1.386 2.209 3.075 2.68 4.918 1.746 0.562 3.309 1.545 4.587 2.908 1.433 1.523 2.385 3.383 2.837 5.396 1.814 0.551 3.467 1.562 4.792 2.98 2.589 2.761 3.519 6.517 2.955 10.14v0.002 0.005c0.005 0.006 0.013 0.01 0.019 0.018 0.098 0.113 1.618 1.887 2.582 2.885 1.918 1.993 5.04 1.988 6.958 0 1.912-1.986 1.92-5.227 0-7.219-0.062-0.064-0.138-0.11-0.201-0.172 0.002-0.014 0.01-0.029 0.012-0.043-6.465-6.707-6.801-7.191-6.161-7.854 0.639-0.663 1.586 0.798 8.819 8.308 0.033 0.033 0.078 0.062 0.133 0.084 0.145 0.211 0.289 0.424 0.471 0.61 1.913 1.992 5.039 1.988 6.957 0 1.914-1.987 1.918-5.228 0-7.22-0.102-0.105-0.216-0.186-0.322-0.28-0.095-0.114-0.188-0.229-0.303-0.346-6.6-6.841-7.35-8.144-6.846-8.666 0.574-0.597 3.648 2.903 10.215 9.712 0.014 0 0.027-0.004 0.043-0.004 1.924 1.818 4.914 1.773 6.775-0.155 1.791-1.858 1.887-4.803 0.321-6.807-0.028-0.134-0.079-0.25-0.165-0.339-8.311-8.629-7.955-8.758-7.451-9.28s0.541-0.558 8.629 7.832c0.029 0.034 0.051 0.075 0.084 0.11 1.914 1.992 5.041 1.987 6.959 0 1.912-1.987 1.918-5.229 0-7.222-0.057-0.051-0.117-0.089-0.17-0.14z" fill="#fff"/></svg>